<svg id="Layer_1" data-name="Layer 1" xmlns="http://www.w3.org/2000/svg" xmlns:xlink="http://www.w3.org/1999/xlink" viewBox="192 300 1536 480"><defs><style>.cls-1{fill:url(#linear-gradient);}.cls-2{fill:url(#linear-gradient-2);}.cls-3{fill:url(#linear-gradient-3);}.cls-4{fill:url(#linear-gradient-4);}.cls-5{fill:url(#linear-gradient-5);}.cls-6{fill:url(#linear-gradient-6);}.cls-7{fill:url(#linear-gradient-7);}.cls-8{fill:url(#linear-gradient-8);}.cls-9{fill:url(#linear-gradient-9);}.cls-10{fill:url(#linear-gradient-10);}.cls-11{fill:url(#linear-gradient-11);}.cls-12{fill:url(#linear-gradient-12);}.cls-13{fill:url(#linear-gradient-13);}.cls-14{fill:url(#linear-gradient-14);}.cls-15{fill:url(#linear-gradient-15);}.cls-16{fill:url(#linear-gradient-16);}.cls-17{fill:url(#linear-gradient-17);}.cls-18{fill:url(#linear-gradient-18);}.cls-19{fill:url(#linear-gradient-19);}.cls-20{fill:url(#linear-gradient-20);}.cls-21{fill:url(#linear-gradient-21);}.cls-22{fill:#003166;}.cls-23{fill:url(#linear-gradient-22);}.cls-24{fill:url(#linear-gradient-23);}.cls-25{fill:url(#linear-gradient-24);}.cls-26{fill:url(#linear-gradient-25);}.cls-27{fill:url(#linear-gradient-26);}.cls-28{fill:url(#linear-gradient-27);}.cls-29{fill:url(#linear-gradient-28);}.cls-30{fill:url(#linear-gradient-29);}.cls-31{fill:url(#linear-gradient-30);}.cls-32{fill:url(#linear-gradient-31);}.cls-33{fill:url(#linear-gradient-32);}.cls-34{fill:url(#linear-gradient-33);}.cls-35{fill:url(#linear-gradient-34);}.cls-36{fill:url(#linear-gradient-35);}.cls-37{fill:url(#linear-gradient-36);}.cls-38{fill:url(#linear-gradient-37);}.cls-39{fill:url(#linear-gradient-38);}.cls-40{fill:url(#linear-gradient-39);}.cls-41{fill:url(#linear-gradient-40);}.cls-42{fill:url(#linear-gradient-41);}.cls-43{fill:url(#linear-gradient-42);}.cls-44{fill:url(#linear-gradient-43);}.cls-45{fill:url(#linear-gradient-44);}.cls-46{fill:url(#linear-gradient-45);}.cls-47{fill:url(#linear-gradient-46);}</style><linearGradient id="linear-gradient" x1="885.87" y1="446.72" x2="810.1" y2="438.66" gradientTransform="translate(561.86 -470.81) rotate(45)" gradientUnits="userSpaceOnUse"><stop offset="0" stop-color="#04d79f"/><stop offset="1" stop-color="#118180"/></linearGradient><linearGradient id="linear-gradient-2" x1="884.19" y1="462.51" x2="808.42" y2="454.45" gradientTransform="translate(579.89 -478.49) rotate(45)" xlink:href="#linear-gradient"/><linearGradient id="linear-gradient-3" x1="884.6" y1="458.58" x2="808.84" y2="450.52" gradientTransform="translate(572.74 -472.93) rotate(44.95)" xlink:href="#linear-gradient"/><linearGradient id="linear-gradient-4" x1="886.43" y1="441.4" x2="810.67" y2="433.34" gradientTransform="matrix(1, 0, 0, 1, 0, 0)" xlink:href="#linear-gradient"/><linearGradient id="linear-gradient-5" x1="886.62" y1="439.63" x2="810.86" y2="431.57" gradientTransform="matrix(1, 0, 0, 1, 0, 0)" xlink:href="#linear-gradient"/><linearGradient id="linear-gradient-6" x1="885" y1="454.9" x2="809.23" y2="446.84" gradientTransform="matrix(1, 0, 0, 1, 0, 0)" xlink:href="#linear-gradient"/><linearGradient id="linear-gradient-7" x1="885.36" y1="451.47" x2="809.6" y2="443.41" gradientTransform="translate(571.4 -480.39) rotate(45.01)" xlink:href="#linear-gradient"/><linearGradient id="linear-gradient-8" x1="886.2" y1="443.57" x2="810.44" y2="435.5" gradientTransform="matrix(1, 0, 0, 1, 0, 0)" xlink:href="#linear-gradient"/><linearGradient id="linear-gradient-9" x1="883.82" y1="465.97" x2="808.05" y2="457.9" gradientTransform="matrix(1, 0, 0, 1, 0, 0)" xlink:href="#linear-gradient"/><linearGradient id="linear-gradient-10" x1="885.33" y1="451.73" x2="809.57" y2="443.66" gradientTransform="matrix(1, 0, 0, 1, 0, 0)" xlink:href="#linear-gradient"/><linearGradient id="linear-gradient-11" x1="883.65" y1="467.52" x2="807.89" y2="459.45" gradientTransform="matrix(1, 0, 0, 1, 0, 0)" xlink:href="#linear-gradient"/><linearGradient id="linear-gradient-12" x1="886.2" y1="443.6" x2="810.43" y2="435.53" gradientTransform="matrix(1, 0, 0, 1, 0, 0)" xlink:href="#linear-gradient"/><linearGradient id="linear-gradient-13" x1="886.01" y1="445.37" x2="810.25" y2="437.3" gradientTransform="matrix(1, 0, 0, 1, 0, 0)" xlink:href="#linear-gradient"/><linearGradient id="linear-gradient-14" x1="885.64" y1="448.89" x2="809.87" y2="440.82" gradientTransform="matrix(1, 0, 0, 1, 0, 0)" xlink:href="#linear-gradient"/><linearGradient id="linear-gradient-15" x1="884.99" y1="454.96" x2="809.22" y2="446.89" gradientTransform="translate(562.36 -458.47) rotate(45)" xlink:href="#linear-gradient"/><linearGradient id="linear-gradient-16" x1="885.61" y1="449.12" x2="809.85" y2="441.05" gradientTransform="matrix(1, 0, 0, 1, 0, 0)" xlink:href="#linear-gradient"/><linearGradient id="linear-gradient-17" x1="885.53" y1="449.92" x2="809.76" y2="441.85" gradientTransform="translate(550.7 -445.17) rotate(45)" xlink:href="#linear-gradient"/><linearGradient id="linear-gradient-18" x1="884.75" y1="457.23" x2="808.98" y2="449.17" gradientTransform="matrix(1, 0, 0, 1, 0, 0)" xlink:href="#linear-gradient"/><linearGradient id="linear-gradient-19" x1="884.67" y1="457.94" x2="808.91" y2="449.88" gradientTransform="matrix(1, 0, 0, 1, 0, 0)" xlink:href="#linear-gradient"/><linearGradient id="linear-gradient-20" x1="884.15" y1="462.87" x2="808.38" y2="454.81" gradientTransform="matrix(1, 0, 0, 1, 0, 0)" xlink:href="#linear-gradient"/><linearGradient id="linear-gradient-21" x1="884.14" y1="462.95" x2="808.37" y2="454.89" gradientTransform="matrix(1, 0, 0, 1, 0, 0)" xlink:href="#linear-gradient"/><linearGradient id="linear-gradient-22" x1="743.85" y1="735.18" x2="743.85" y2="710.43" gradientTransform="matrix(1, 0, 0, 1, 0, 0)" xlink:href="#linear-gradient"/><linearGradient id="linear-gradient-23" x1="797.65" y1="735.18" x2="797.65" y2="710.43" gradientTransform="matrix(1, 0, 0, 1, 0, 0)" xlink:href="#linear-gradient"/><linearGradient id="linear-gradient-24" x1="856.48" y1="735.18" x2="856.48" y2="710.43" gradientTransform="matrix(1, 0, 0, 1, 0, 0)" xlink:href="#linear-gradient"/><linearGradient id="linear-gradient-25" x1="914.14" y1="735.18" x2="914.14" y2="710.43" gradientTransform="matrix(1, 0, 0, 1, 0, 0)" xlink:href="#linear-gradient"/><linearGradient id="linear-gradient-26" x1="969.88" y1="735.18" x2="969.88" y2="710.43" gradientTransform="matrix(1, 0, 0, 1, 0, 0)" xlink:href="#linear-gradient"/><linearGradient id="linear-gradient-27" x1="1003.68" y1="735.18" x2="1003.68" y2="710.43" gradientTransform="matrix(1, 0, 0, 1, 0, 0)" xlink:href="#linear-gradient"/><linearGradient id="linear-gradient-28" x1="1074.23" y1="735.18" x2="1074.23" y2="710.43" gradientTransform="matrix(1, 0, 0, 1, 0, 0)" xlink:href="#linear-gradient"/><linearGradient id="linear-gradient-29" x1="1121.88" y1="735.18" x2="1121.88" y2="710.43" gradientTransform="matrix(1, 0, 0, 1, 0, 0)" xlink:href="#linear-gradient"/><linearGradient id="linear-gradient-30" x1="1173.06" y1="735.18" x2="1173.06" y2="710.43" gradientTransform="matrix(1, 0, 0, 1, 0, 0)" xlink:href="#linear-gradient"/><linearGradient id="linear-gradient-31" x1="1000.42" y1="515.27" x2="944.08" y2="453.87" gradientTransform="matrix(1, 0, 0, 1, 0, 0)" xlink:href="#linear-gradient"/><linearGradient id="linear-gradient-32" x1="935.53" y1="446.82" x2="995.57" y2="485.63" gradientTransform="matrix(1, 0, 0, 1, 0, 0)" xlink:href="#linear-gradient"/><linearGradient id="linear-gradient-33" x1="1036.94" y1="421.72" x2="1069.69" y2="433.95" gradientTransform="matrix(1, 0, 0, 1, 0, 0)" xlink:href="#linear-gradient"/><linearGradient id="linear-gradient-34" x1="1040.08" y1="413.32" x2="1072.82" y2="425.55" gradientTransform="translate(607.89 -626.45) rotate(44.98)" xlink:href="#linear-gradient"/><linearGradient id="linear-gradient-35" x1="1036.29" y1="423.47" x2="1069.03" y2="435.71" gradientTransform="matrix(1, 0, 0, 1, 0, 0)" xlink:href="#linear-gradient"/><linearGradient id="linear-gradient-36" x1="1040.28" y1="412.79" x2="1073.02" y2="425.03" gradientTransform="translate(611.24 -630.63) rotate(44.98)" xlink:href="#linear-gradient"/><linearGradient id="linear-gradient-37" x1="1043.03" y1="405.44" x2="1075.77" y2="417.67" gradientTransform="matrix(1, 0, 0, 1, 0, 0)" xlink:href="#linear-gradient"/><linearGradient id="linear-gradient-38" x1="1040.73" y1="411.58" x2="1073.47" y2="423.82" gradientTransform="translate(615.13 -635.77) rotate(45.02)" xlink:href="#linear-gradient"/><linearGradient id="linear-gradient-39" x1="1037.57" y1="420.03" x2="1070.31" y2="432.27" gradientTransform="translate(606.16 -616.03) rotate(45.02)" xlink:href="#linear-gradient"/><linearGradient id="linear-gradient-40" x1="1033.12" y1="431.96" x2="1065.86" y2="444.19" gradientTransform="translate(609.82 -606.48) rotate(44.95)" xlink:href="#linear-gradient"/><linearGradient id="linear-gradient-41" x1="1031.04" y1="437.52" x2="1063.78" y2="449.75" gradientTransform="matrix(1, 0, 0, 1, 0, 0)" xlink:href="#linear-gradient"/><linearGradient id="linear-gradient-42" x1="1045.21" y1="399.6" x2="1077.95" y2="411.84" gradientTransform="matrix(1, 0, 0, 1, 0, 0)" xlink:href="#linear-gradient"/><linearGradient id="linear-gradient-43" x1="1040.73" y1="411.58" x2="1073.47" y2="423.82" gradientTransform="matrix(1, 0, 0, 1, 0, 0)" xlink:href="#linear-gradient"/><linearGradient id="linear-gradient-44" x1="1035.58" y1="425.36" x2="1068.32" y2="437.59" gradientTransform="matrix(1, 0, 0, 1, 0, 0)" xlink:href="#linear-gradient"/><linearGradient id="linear-gradient-45" x1="1039.57" y1="414.7" x2="1072.31" y2="426.93" gradientTransform="matrix(1, 0, 0, 1, 0, 0)" xlink:href="#linear-gradient"/><linearGradient id="linear-gradient-46" x1="1038.29" y1="418.11" x2="1071.03" y2="430.34" gradientTransform="matrix(1, 0, 0, 1, 0, 0)" xlink:href="#linear-gradient"/></defs><rect class="cls-1" x="842.16" y="441.85" width="14.21" height="1.94" transform="translate(-64.38 730.21) rotate(-45)"/><rect class="cls-2" x="860.42" y="459.77" width="14.21" height="1.94" transform="translate(-71.7 748.39) rotate(-45)"/><rect class="cls-3" x="848.21" y="454.77" width="19.48" height="1.94" transform="translate(-71.22 739.34) rotate(-44.95)"/><rect class="cls-4" x="776.05" y="434" width="99.89" height="1.94"/><polygon class="cls-5" points="874.57 435.37 882.86 443.73 884.24 442.36 875.95 434 874.57 435.37"/><polygon class="cls-6" points="877.73 463.01 894.74 445.83 896.12 447.2 879.1 464.38 877.73 463.01"/><rect class="cls-7" x="864.44" y="429.05" width="1.94" height="40.59" transform="translate(-64.2 743.74) rotate(-45.01)"/><path class="cls-8" d="M883.42,446.24a3,3,0,1,1,3-3A3,3,0,0,1,883.42,446.24Z"/><path class="cls-9" d="M851.2,465.46a3,3,0,1,1,3-3A3,3,0,0,1,851.2,465.46Z"/><path class="cls-10" d="M844.47,450.34a3,3,0,1,1,3-3A3,3,0,0,1,844.47,450.34Z"/><path class="cls-11" d="M862.74,468.26a3,3,0,1,1,3-3A3,3,0,0,1,862.74,468.26Z"/><path class="cls-12" d="M893.49,444.78a3.83,3.83,0,1,1,3.82,3.83A3.82,3.82,0,0,1,893.49,444.78Zm5.93,0a2.11,2.11,0,1,0-2.11,2.11A2.11,2.11,0,0,0,899.42,444.78Z"/><rect class="cls-13" x="868.97" y="434.36" width="0.83" height="18.46"/><rect class="cls-14" x="863.71" y="447.76" width="30.5" height="0.83"/><rect class="cls-15" x="833.84" y="438.73" width="1.52" height="21.73" transform="translate(-73.46 721.83) rotate(-45)"/><rect class="cls-16" x="812.47" y="441.37" width="14.98" height="1.52"/><rect class="cls-17" x="811.96" y="431.55" width="1.52" height="21.23" transform="translate(-74.62 704.19) rotate(-45)"/><rect class="cls-18" x="832.58" y="448.02" width="1.52" height="7.49"/><path class="cls-19" d="M819.69,449.14a3,3,0,1,1,0,4.23A3,3,0,0,1,819.69,449.14Zm3.28,3.28a1.65,1.65,0,0,0,0-2.33,1.64,1.64,0,0,0-2.33,0,1.65,1.65,0,0,0,2.33,2.33Z"/><path class="cls-20" d="M841.45,456.44a3,3,0,1,1,0,4.22A3,3,0,0,1,841.45,456.44Zm3.27,3.28a1.65,1.65,0,0,0-2.33-2.34,1.65,1.65,0,0,0,2.33,2.34Z"/><path class="cls-21" d="M831.29,455.44a3,3,0,1,1,0,4.22A3,3,0,0,1,831.29,455.44Zm3.28,3.27a1.65,1.65,0,1,0-2.33,0A1.65,1.65,0,0,0,834.57,458.71Z"/><path class="cls-22" d="M718,661.75l-18.14,24.51H615.36V606.38h84.49L718,630.88l-11.37,15.44ZM691.59,631l-5.82-6.7H639.46v14.08h46.31Zm0,30.87-5.82-7.24H639.46v13.81h46.31Z"/><path class="cls-22" d="M758.2,686.26l-24.1-.14V606.49l24.1-13.92Z"/><path class="cls-22" d="M878.84,606.38,861.1,624.25H837.4v75.82l-24.09-13.81v-62h-23.7l-17.73-17.87Z"/><path class="cls-22" d="M1033.32,606.38l-43.19,79.88H967.56L958.31,669,949,686.26H926.63L883.3,606.38h24.64L937.86,661l8-14.86-21.59-39.72H949l9.21,17,9.33-17h24.68L970.7,646.07l8.26,15,29.88-54.7Z"/><path class="cls-22" d="M1070.82,686.26l-24.1-.14V606.49l24.1-13.92Z"/><path class="cls-22" d="M1195.24,661.75l-18.14,24.51h-92.61l17.73-17.87H1163l5.69-6.61-5.76-7.2h-60.85L1084.49,631l18.14-24.57h92.61l-17.87,17.87h-60.66l-5.82,6.83,5.82,7.25h60.93Z"/><path class="cls-22" d="M1304.64,606.38l-17.74,17.87h-53.62v14.08H1293l-16.25,16.25h-43.46v13.81h68.51l-17.87,17.87h-74.74V606.38Z"/><path class="cls-23" d="M759,707v6.49H737.41v4.86H759V724H737.41V735.5h-8.66V707Z"/><path class="cls-24" d="M797.05,706.74l6.91,0q7.59,0,10.39,2.51t2.79,10.07v1.37q0,8.87-2.21,11.88t-11.22,3l-6.53.12-2.73,0-5.89-.22c-3.3,0-5.84-.74-7.64-2.24s-2.68-3.9-2.68-7.23l-.09-5.24q0-8.67,2.22-11.33t10.54-2.67Zm-4.69,22,4.65.08,4.43,0a12.85,12.85,0,0,0,5.27-.79c1.07-.53,1.6-1.84,1.6-3.92l.09-3.85a20.16,20.16,0,0,0-.24-3.36,3.41,3.41,0,0,0-1-2.05,4.07,4.07,0,0,0-2.15-.88,21,21,0,0,0-3-.21l-8.62,0a12.93,12.93,0,0,0-4.48.6,2.85,2.85,0,0,0-1.77,2.55,26.83,26.83,0,0,0-.23,3.23V722c0,2.63.3,4.39.91,5.31S789.94,728.72,792.36,728.72Z"/><path class="cls-25" d="M865,707q5.12,0,7.32,2t2.19,7a22.07,22.07,0,0,1-.21,3.29,6.19,6.19,0,0,1-.85,2.37,4.44,4.44,0,0,1-1.5,1.49,23,23,0,0,1-3.58,1.39,8.78,8.78,0,0,1,4.39,1.51c.94.76,1.41,2.07,1.41,3.95v5.46h-8.79v-2.73a12.4,12.4,0,0,0-.36-3.33c-.24-.82-1.37-1.24-3.39-1.24H847.14v7.3h-8.66V707Zm-3.63,14.25c2,0,3.19-.24,3.67-.72s.73-1.57.73-3.25a6.05,6.05,0,0,0-.28-2.09,1.66,1.66,0,0,0-1.15-.93,6.91,6.91,0,0,0-1.43-.3c-.37,0-.81,0-1.32,0H847.14v7.34h14.2Z"/><path class="cls-26" d="M932.67,719.46l.05,6q0,5.25-1.82,7.79c-1.2,1.69-3.56,2.53-7.06,2.53l-4.52,0-5.16,0-4.48,0a36.41,36.41,0,0,1-7.79-.66,7.58,7.58,0,0,1-4.56-2.92q-1.7-2.26-1.69-6.91l-.08-3.59q0-8.31,2.05-11.52t9.64-3.2l6.48-.12,2.39,0,5.8.13q5.64,0,8.17,1.94c1.7,1.3,2.54,3.79,2.54,7.49v.51h-8.49a4.61,4.61,0,0,0-.3-1.75,1.82,1.82,0,0,0-1.11-1,5.86,5.86,0,0,0-1.55-.36c-.5,0-1.22-.07-2.16-.07l-10,0c-2,0-3.35.5-3.89,1.49a11.35,11.35,0,0,0-.81,5v2.64a9.18,9.18,0,0,0,.81,4.38,3,3,0,0,0,2.31,1.62c1,.12,1.76.2,2.3.23s1.22,0,2,0l7.72,0a6.84,6.84,0,0,0,3.44-.73,2.88,2.88,0,0,0,1.25-2.73l0-.81h-11v-5.33Z"/><path class="cls-27" d="M985.75,707v6.49H962.67v4.86h21.54V724H962.67v5h23.08v6.44H954V707Z"/><path class="cls-28" d="M1001.32,743.09h-.64a12.62,12.62,0,0,1-1.88-.13v-4.43l.89.08a2.47,2.47,0,0,0,2.1-.79,3.85,3.85,0,0,0,.59-2.32H1000v-7.94h8.58v7.94q0,4.14-1.56,5.86C1006,742.52,1004.07,743.09,1001.32,743.09Z"/><path class="cls-29" d="M1088.39,728.37v7.13h-28.32V707h8.66v21.33Z"/><path class="cls-30" d="M1136.05,728.37v7.13h-28.33V707h8.66v21.33Z"/><path class="cls-31" d="M1191.25,725.9q0,5.88-2.15,7.83t-8.51,1.94l-6.62.13-5.37-.09q-8.58,0-11-2.24c-1.64-1.49-2.45-3.82-2.45-7l-.26-6q0-7,2.05-10.26t8.36-3.26l8.11-.21c2.36,0,4.31,0,5.84.06s3.4.18,5.59.41a5.61,5.61,0,0,1,4.69,2.88,14.32,14.32,0,0,1,1.41,6.93h-8.4a2.93,2.93,0,0,0-1-2.59,5.51,5.51,0,0,0-3-.65l-2.44-.05h-2.38l-4.4.05q-3.93,0-4.8,1.44t-.87,6q0,4.66,1,6.07t5.46,1.4l3.37.08,4.44,0a7.13,7.13,0,0,0,3.71-.72c.74-.48,1.11-1.6,1.11-3.38h8.49Z"/><path class="cls-22" d="M1079.94,452.06q.06,58.77,0,117.54c0,7-.2,7.18-7,7.2s-13.64-.09-20.46,0c-4.25.09-6-1.74-5.9-6,.17-5.92,0-11.85,0-17.8-6-2.35-11.73-4.49-17.36-6.76a81.67,81.67,0,0,1-13.95-7.54,36.3,36.3,0,0,0,2.17-6.69,92.46,92.46,0,0,0,29.91,13.64c4.65,1.26,6.26,3.5,6,8.1-.3,5.19-.07,10.42-.07,16h20v-122l5.7-1.4C1080.51,448.24,1079.94,450.22,1079.94,452.06Z"/><path class="cls-22" d="M1000.79,504.84a28,28,0,0,0,.63,6.11l-.07.3c-.87,3.6-2.21,6.28-4,8l-.18.15a33.45,33.45,0,0,1-2.53-7.56,27.52,27.52,0,0,1,3-3.79C998.62,506.92,999.68,505.88,1000.79,504.84Z"/><path class="cls-22" d="M938.55,336.91c1.67,2.35,3.18,4.67,4.55,6.95H846.85v71.47a6.46,6.46,0,0,1-6,.15c-.93-1.48-.56-3.09-.56-4.62q-.06-33.58,0-67.17c0-6.52.28-6.78,6.86-6.78Z"/><path class="cls-22" d="M1115.58,422.31a5.6,5.6,0,0,0-2.28,5c0,5.94-3.21,8.47-9,9.4-15.17,2.47-30.38,4.9-45.11,9.46-13.48,4.16-26.2,9.74-37,18.51a51,51,0,0,0,0-6.42c-.05-.66-.11-1.32-.18-2a123.54,123.54,0,0,1,16.31-9.24c18.19-8.74,37.83-12.15,57.45-15.68,3.4-.62,6.94-.75,10.56-2.46,0-5.1,1.72-9.62,6-13,2-1.56.72-3.86,1-6.1H987.58c.64-1.71,1.21-3.47,1.69-5.28.13-.5.25-1,.37-1.51q38.37,0,76.75,0h6.67V343.86H964.11a125.54,125.54,0,0,0-11.23-6.95h120.4c6.38,0,6.68.33,6.68,6.95q0,26.49,0,53V403h31.94c7.95,0,7.75,0,8,8.28C1120.09,415.79,1119.47,419.59,1115.58,422.31Z"/><path class="cls-22" d="M922,487.82A21,21,0,0,0,909.36,477a25.19,25.19,0,0,0-2.65-.73,48.88,48.88,0,0,0-12.68-.85,154.22,154.22,0,0,1-37-3.09c-31.07-6.23-58.71-19.06-80.95-42.22-1.35-1.41-3.19-2.56-3.36-5.13,10.94.52,21.59,1.11,32.23,1.54,22.88.91,45.75,2,68.62,0,6.14-.56,12.62-.87,13.47-8.8,7.7-1.42,16.81,2.46,19.88-7.86h3a34.12,34.12,0,0,1,2-6.85c-1.15,0-2.31,0-3.46,0-5.33,0-10.1-.2-9.48,7.59-4.49,0-8.51.27-12.48-.06-6.1-.48-5.16,5.08-7.15,7.93a18.52,18.52,0,0,1-6.76,1.52c-22.53,2-45.06.92-67.59-.06-12.75-.55-25.48-1.39-38.23-2.05-2-.11-4.41-.76-5.68,1.54-1.4,2.53.59,4.24,1.95,6,.84,1.11,1.75,2.17,2.66,3.23,16.39,19.16,36.68,32.71,60.12,41.68,4.69,1.81,9.47,3.39,14.44,5.16v6c0,29.73.07,59.46-.07,89.2,0,4.46,1.33,6.39,6,6.23,7.17-.26,14.35-.17,21.52,0,4.23.09,6-1.71,5.91-6-.17-5.92,0-11.85,0-17.81,6.78-2.66,12.91-4.74,18.76-7.41a104.51,104.51,0,0,0,9.6-4.93l1.28-.77c6.78-4.14,12.81-9.26,17.32-16.21C928,512.16,928.19,499.76,922,487.82Zm-10.93,37a64,64,0,0,1-10,8.36c-.63.43-1.27.85-1.92,1.25-7.89,5-16.66,8.4-25.77,11-5.34,1.54-7,4-6.64,9.19.35,4.84.07,9.74.07,15H847.1V477.12c13.29,2.82,26.18,4.95,39.33,5,5.73,0,11.46-.76,17.22.45a24.36,24.36,0,0,1,3,.82,18.48,18.48,0,0,1,3.17,1.37c4.31,2.32,7.19,6.11,8.53,11.58C921,507.12,919,516.77,911.09,524.86Z"/><path class="cls-32" d="M1010.59,515.6c3.93,11.95-.64,25.75-11.1,32.73-4.76,3.17-10.32,4.86-15.65,6.91s-10.71,4.64-14.32,9.06a19,19,0,0,0-4.17,9.1,18.2,18.2,0,0,0-2.76-4.25,24.45,24.45,0,0,0-3.31-3.19,32.41,32.41,0,0,0-9.89-5.34c-8.86-3-18.6-3.48-26.79-8a29.73,29.73,0,0,1-7.55-5.93,31.49,31.49,0,0,1-7.26-13.08,44.66,44.66,0,0,0,10.33-11c6.88-10.56,7-21.9,1.39-32.8a20.72,20.72,0,0,0-3.3-4.72c.48-7.12-.84-14.14-5.57-19.27,2.8-1.21,5.69-.44,8.16,1.32h0a16.89,16.89,0,0,1,4.93,5.72c2.61,4.89,2.57,10.72,2.27,16.26s-.77,11.26,1.11,16.48a15.73,15.73,0,0,0,2.44,4.38c2.47,3.1,6.09,5.22,10,4.76,5.52-.64,9.27-6.09,10.7-11.46,2.72-10.22-.32-21.18-5.25-30.53s-11.69-17.62-17.16-26.66-9.73-19.38-8.85-29.91c.64-7.61,4.61-15.21,10.7-19.53a19.14,19.14,0,0,1,7.89-3.35c-4.1,4.56-7.63,9.16-8,15.28a15.27,15.27,0,0,0,3,9.83,11,11,0,0,0,6.36,4.28c7.12,1.6,13.66-4.43,17.48-10.65,12.27-19.92,10.88-47.34-3.32-65.93a88.92,88.92,0,0,1,15.29,10.22,43.41,43.41,0,0,1,9.82,12c5.75,10.45,7.9,23,4.89,34.58C980.7,412,975.34,420,970.6,428.17s-9.06,17-9,26.43a24.84,24.84,0,0,0,5.7,15.63,17.08,17.08,0,0,0,9.31,5.81c7.36,1.63,15.06-2.15,20.19-7.68,9.8-10.57,11.43-27.84,3.78-40.06l.72.61c9.06,7.78,13.62,17.8,14.49,29.82a46.42,46.42,0,0,1-11.81,34.1c-3.48,3.82-7.58,7-11.08,10.83s-6.47,8.41-6.92,13.56a13.48,13.48,0,0,0,2.35,8.84,9.85,9.85,0,0,0,4.74,3.68c4,1.41,8.62-.12,11.7-3a18.45,18.45,0,0,0,4.16-6.14A30.13,30.13,0,0,0,1010.59,515.6Z"/><path class="cls-33" d="M1009,520.57a28.9,28.9,0,0,1-12.48,24.91c-4.76,3.17-10.32,4.85-15.65,6.9s-10.71,4.64-14.32,9.07a19.61,19.61,0,0,0-3.91,7.7c-.11.47-.2.94-.26,1.4a18.53,18.53,0,0,0-3.05-4.59,30.42,30.42,0,0,0-12.91-8.19c-8.86-3-18.6-3.48-26.79-8a29.14,29.14,0,0,1-4.53-3.08,31.5,31.5,0,0,1-8.88-11.89c.55-.38,1.09-.78,1.62-1.19a44.66,44.66,0,0,0,10.33-11c6.88-10.56,7-21.9,1.39-32.8a20.72,20.72,0,0,0-3.3-4.72,17.43,17.43,0,0,0-3-2.62c.53-7.2-.77-14.32-5.55-19.51,4-1.74,8.3.66,11.18,4.18h0a17.89,17.89,0,0,1,1.91,2.87c2.61,4.89,2.57,10.72,2.27,16.26s-.77,11.25,1.11,16.47a15.21,15.21,0,0,0,5.46,7.24,10.09,10.09,0,0,0,6.93,1.91c5.52-.64,9.27-6.09,10.7-11.46,2.72-10.22-.32-21.18-5.25-30.54s-11.69-17.61-17.16-26.66-9.73-19.37-8.85-29.91,8.17-21.06,18.59-22.88a46.37,46.37,0,0,0-4.87,6.21,18.61,18.61,0,0,0-3.1,9.08c-.26,4.88,2,10.09,6,12.68a9.94,9.94,0,0,0,3.34,1.43c7.12,1.59,13.66-4.44,17.48-10.65,12.27-19.92,10.88-47.35-3.32-65.93,6.93,3.85,13.2,7.79,18.31,13.07a42,42,0,0,1,6.8,9.16c5.75,10.45,7.9,23,4.89,34.58-2.37,9.12-7.73,17.11-12.47,25.25s-9.06,17-9,26.43c0,7,3.27,14.38,8.72,18.49a16.12,16.12,0,0,0,6.29,2.95c7.36,1.64,15.06-2.14,20.19-7.67,9.8-10.57,11.43-27.84,3.78-40.06a44.38,44.38,0,0,1,3.74,3.46c7.07,7.33,10.71,16.36,11.47,27A46.43,46.43,0,0,1,1001,490c-3.48,3.82-7.58,7-11.08,10.83s-6.47,8.41-6.92,13.55c-.4,4.51,1.6,9.4,5.37,11.7a8.27,8.27,0,0,0,1.72.83c4,1.4,8.62-.13,11.7-3s4.81-7,5.8-11.1A28.07,28.07,0,0,1,1009,520.57Z"/><path class="cls-22" d="M922,487.82c-5.76-11.16-16.63-12.88-28-12.4-4.12.17-8.23.15-12.32,0V482c1.57.06,3.14.1,4.72.11,5.73,0,11.46-.76,17.22.45,7.8,1.63,12.8,6,14.7,13.77,2.65,10.79.63,20.44-7.26,28.53-8.36,8.58-18.49,14-29.38,17.95v7.13c3.67-1.39,7.19-2.75,10.59-4.3,11.08-5.08,21.38-11.42,28.2-21.91C928,512.16,928.19,499.75,922,487.82Z"/><rect class="cls-22" x="1042.13" y="521.4" width="1.27" height="29.24"/><rect class="cls-22" x="1029.45" y="524.66" width="7.95" height="1.27" transform="translate(-68.41 885.65) rotate(-45.05)"/><polygon class="cls-22" points="1027.76 515.28 1037.71 525.32 1038.61 524.42 1028.66 514.38 1027.76 515.28"/><polygon class="cls-22" points="1030.75 487.59 1040.7 497.62 1041.6 496.73 1031.65 486.69 1030.75 487.59"/><polygon class="cls-22" points="1039.83 504.37 1049.78 514.4 1050.68 513.5 1040.73 503.47 1039.83 504.37"/><rect class="cls-22" x="1039.49" y="513.76" width="21.06" height="1.27" transform="translate(-56.18 893.16) rotate(-45)"/><rect class="cls-22" x="1045.02" y="491.28" width="21.06" height="1.27" transform="translate(-38.67 890.48) rotate(-45)"/><rect class="cls-22" x="1037.64" y="514.22" width="1.27" height="29.24"/><rect class="cls-22" x="1030.38" y="496.69" width="1.27" height="21.06" transform="translate(-56.68 877.61) rotate(-45)"/><rect class="cls-22" x="1051.9" y="496.65" width="1.27" height="12.54" transform="translate(-47.17 892.02) rotate(-45.02)"/><rect class="cls-22" x="1030.67" y="478.55" width="1.27" height="29.24"/><rect class="cls-22" x="1029.38" y="476.19" width="3.85" height="3.85"/><path class="cls-22" d="M1023.38,501.75a1.94,1.94,0,1,1,1.94-1.94A1.94,1.94,0,0,1,1023.38,501.75Z"/><path class="cls-22" d="M1040.42,506.09a1.94,1.94,0,1,1,1.94-1.94A1.94,1.94,0,0,1,1040.42,506.09Z"/><path class="cls-22" d="M1030.17,530.5a1.94,1.94,0,1,1,1.94-1.94A1.94,1.94,0,0,1,1030.17,530.5Z"/><path class="cls-22" d="M1024.26,513.26a2.51,2.51,0,1,1,2.5,2.5A2.5,2.5,0,0,1,1024.26,513.26Zm3.88,0a1.38,1.38,0,1,0-1.38,1.38A1.38,1.38,0,0,0,1028.14,513.26Z"/><path class="cls-22" d="M1040.26,498.51a2.5,2.5,0,1,1,2.5,2.5A2.5,2.5,0,0,1,1040.26,498.51Zm3.88,0a1.38,1.38,0,1,0-1.38,1.38A1.38,1.38,0,0,0,1044.14,498.51Z"/><path class="cls-22" d="M1062,483.31a2.5,2.5,0,1,1,2.5,2.5A2.5,2.5,0,0,1,1062,483.31Zm3.88,0a1.38,1.38,0,1,0-1.38,1.38A1.38,1.38,0,0,0,1065.89,483.31Z"/><rect class="cls-22" x="863.31" y="525.73" width="1.81" height="13.23" transform="translate(-123.3 767) rotate(-45)"/><rect class="cls-22" x="879.99" y="508.72" width="1.81" height="13.23" transform="translate(-106.38 773.83) rotate(-45)"/><rect class="cls-22" x="875.34" y="515.17" width="1.81" height="18.15" transform="translate(-114.27 772.29) rotate(-44.95)"/><rect class="cls-22" x="855.99" y="507.49" width="1.81" height="66.4"/><polygon class="cls-22" points="857.27 508.76 865.05 501.04 863.78 499.76 855.99 507.49 857.27 508.76"/><polygon class="cls-22" points="883.01 505.83 867.01 489.98 868.29 488.7 884.29 504.55 883.01 505.83"/><rect class="cls-22" x="851.38" y="516.39" width="37.81" height="1.81" transform="translate(-110.83 767.1) rotate(-45.01)"/><path class="cls-22" d="M867.39,500.52a2.76,2.76,0,1,1-2.76-2.76A2.76,2.76,0,0,1,867.39,500.52Z"/><path class="cls-22" d="M885.3,530.53a2.77,2.77,0,1,1-2.76-2.76A2.77,2.77,0,0,1,885.3,530.53Z"/><path class="cls-22" d="M871.22,536.8a2.77,2.77,0,1,1-2.77-2.76A2.77,2.77,0,0,1,871.22,536.8Z"/><path class="cls-22" d="M887.9,519.79a2.77,2.77,0,1,1-2.76-2.76A2.76,2.76,0,0,1,887.9,519.79Z"/><path class="cls-22" d="M866,491.15a3.57,3.57,0,1,1,3.56-3.57A3.57,3.57,0,0,1,866,491.15Zm0-5.53a2,2,0,1,0,2,2A2,2,0,0,0,866,485.62Z"/><rect class="cls-22" x="856.33" y="513.22" width="17.2" height="0.77"/><rect class="cls-22" x="868.81" y="490.47" width="0.77" height="28.41"/><rect class="cls-34" x="1037.33" y="424.75" width="19.06" height="1.33"/><rect class="cls-35" x="1053.99" y="420.3" width="13.14" height="1.33" transform="translate(12.78 872.82) rotate(-44.98)"/><rect class="cls-36" x="1042.09" y="428.54" width="19.06" height="1.33"/><rect class="cls-37" x="1057.97" y="422.19" width="18.49" height="1.33" transform="translate(13.42 878.14) rotate(-44.98)"/><rect class="cls-38" x="1055.72" y="415.79" width="33.56" height="1.33"/><rect class="cls-39" x="1073.93" y="417.67" width="1.33" height="13.14" transform="translate(14.94 884.52) rotate(-45.02)"/><rect class="cls-40" x="1045.62" y="420.01" width="1.33" height="6.57" transform="translate(7.31 864.22) rotate(-45.02)"/><rect class="cls-41" x="1031.16" y="433.06" width="13.36" height="1.33" transform="translate(-3.06 860.05) rotate(-44.95)"/><path class="cls-42" d="M1033.12,436.26a2,2,0,1,1-2,2A2,2,0,0,1,1033.12,436.26Z"/><path class="cls-43" d="M1090.3,413a3.48,3.48,0,1,1-3.48,3.48A3.48,3.48,0,0,1,1090.3,413Z"/><path class="cls-44" d="M1056.38,416.45a2.62,2.62,0,1,1-2.62-2.62A2.62,2.62,0,0,1,1056.38,416.45Zm-4.06,0a1.45,1.45,0,1,0,1.44-1.44A1.44,1.44,0,0,0,1052.32,416.45Z"/><path class="cls-45" d="M1038.37,425.42a2.63,2.63,0,1,1-2.63-2.62A2.63,2.63,0,0,1,1038.37,425.42Zm-4.07,0a1.45,1.45,0,1,0,1.44-1.45A1.45,1.45,0,0,0,1034.3,425.42Z"/><path class="cls-46" d="M1083.16,430a2.62,2.62,0,1,1-2.62-2.62A2.62,2.62,0,0,1,1083.16,430Zm-4.07,0a1.45,1.45,0,1,0,1.45-1.44A1.45,1.45,0,0,0,1079.09,430Z"/><path class="cls-47" d="M1045.28,419.74a2.62,2.62,0,1,1-2.62-2.62A2.62,2.62,0,0,1,1045.28,419.74Zm-4.06,0a1.45,1.45,0,1,0,1.44-1.44A1.44,1.44,0,0,0,1041.22,419.74Z"/></svg>